<svg width="32" height="32" viewBox="0 0 32 32" fill="none" xmlns="http://www.w3.org/2000/svg">
<path d="M8.5 9.08595C8.5 8.76236 8.76236 8.5 9.08595 8.5H12.289C12.6126 8.5 12.875 8.76236 12.875 9.08595V12.289C12.875 12.6126 12.6126 12.875 12.289 12.875H9.08595C8.76236 12.875 8.5 12.6126 8.5 12.289V9.08595ZM11.625 11.625V9.75005H9.75005V11.625H11.625ZM8.5 19.7108C8.5 19.3872 8.76236 19.1248 9.08595 19.1248H12.289C12.6126 19.1248 12.875 19.3872 12.875 19.7108V22.914C12.875 23.2376 12.6126 23.5 12.289 23.5H9.08595C8.76236 23.5 8.5 23.2376 8.5 22.914V19.7108ZM11.625 22.2502V20.3752H9.75005V22.2502H11.625ZM19.125 9.08595C19.125 8.76236 19.3874 8.5 19.711 8.5H22.914C23.2376 8.5 23.5 8.76236 23.5 9.08595V12.289C23.5 12.6126 23.2376 12.875 22.914 12.875H19.711C19.3874 12.875 19.125 12.6126 19.125 12.289V9.08595ZM22.25 11.625V9.75005H20.375V11.625H22.25ZM22.25 14.711C22.25 14.3874 22.5123 14.125 22.8358 14.125H22.914C23.2376 14.125 23.5 14.3874 23.5 14.711V18.539C23.5 18.8625 23.2376 19.1248 22.914 19.1248H19.711C19.3874 19.1248 19.125 18.8625 19.125 18.539V18.461C19.125 18.1374 19.3874 17.875 19.711 17.875H22.25V14.711ZM19.125 20.961C19.125 20.6375 19.3874 20.3752 19.711 20.3752H22.914C23.2376 20.3752 23.5 20.6375 23.5 20.961V22.914C23.5 23.2376 23.2376 23.5 22.914 23.5H22.8358C22.5123 23.5 22.25 23.2376 22.25 22.914V21.625H20.375V22.914C20.375 23.2376 20.1126 23.5 19.789 23.5H19.711C19.3874 23.5 19.125 23.2376 19.125 22.914V20.961ZM14.125 9.08595C14.125 8.76236 14.3874 8.5 14.711 8.5H17.289C17.6126 8.5 17.875 8.76236 17.875 9.08595V12.289C17.875 12.6126 17.6126 12.875 17.289 12.875H17.2108C16.8872 12.875 16.625 12.6126 16.625 12.289V9.75005H14.711C14.3874 9.75005 14.125 9.48775 14.125 9.16409V9.08595ZM16.625 14.711C16.625 14.3874 16.8872 14.125 17.2108 14.125H19.789C20.1126 14.125 20.375 14.3874 20.375 14.711V16.0392C20.375 16.3628 20.1126 16.6252 19.789 16.6252H19.711C19.3874 16.6252 19.125 16.3628 19.125 16.0392V15.375H17.875V17.289C17.875 17.6126 17.6126 17.875 17.289 17.875H15.375V19.1248H17.289C17.6126 19.1248 17.875 19.3872 17.875 19.7108V22.914C17.875 23.2376 17.6126 23.5 17.289 23.5H17.2108C16.8872 23.5 16.625 23.2376 16.625 22.914V20.3752H14.711C14.3874 20.3752 14.125 20.1128 14.125 19.7892V17.211C14.125 16.8875 14.3874 16.6252 14.711 16.6252H16.625V14.711ZM14.711 21.625H14.7892C15.1128 21.625 15.375 21.8874 15.375 22.211V22.914C15.375 23.2376 15.1128 23.5 14.7892 23.5H14.711C14.3874 23.5 14.125 23.2376 14.125 22.914V22.211C14.125 21.8874 14.3874 21.625 14.711 21.625ZM11.5858 16.6252H12.289C12.6126 16.6252 12.875 16.8875 12.875 17.211V17.289C12.875 17.6126 12.6126 17.875 12.289 17.875H11.5858C11.2622 17.875 11 17.6126 11 17.289V17.211C11 16.8875 11.2622 16.6252 11.5858 16.6252ZM14.125 11.5858C14.125 11.2622 14.3874 11 14.711 11H14.7892C15.1128 11 15.375 11.2622 15.375 11.5858V14.7892C15.375 15.1128 15.1128 15.375 14.7892 15.375H9.75005V17.289C9.75005 17.6126 9.48775 17.875 9.16409 17.875H9.08595C8.76236 17.875 8.5 17.6126 8.5 17.289V14.711C8.5 14.3874 8.76236 14.125 9.08595 14.125H14.125V11.5858Z" fill="white"/>
</svg>